<svg xmlns="http://www.w3.org/2000/svg" viewBox="0 0 600 600"><g fill="none" stroke="#000" stroke-width="1.1"><path d="M200 0L199 6L198 14L197 22L195 30L193 36L191 39L188 46L185 52L183 55L178 62L176 64L170 69L165 72L161 73L154 75L146 75L138 76L130 76L122 77L114 79L110 80L105 82L100 87L97 92L95 95L94 102L95 110L96 117L96 120L98 126L100 134L102 142L103 150L103 158L104 164L104 167L105 174L106 182L107 190L107 198L107 206L108 214L109 222L109 230L111 238L112 240L115 246L119 251L124 255L127 257L134 260L142 261L150 262L158 262L166 261L174 261L182 260L190 258L196 256L199 255L206 251L210 249L215 244L218 241L223 234L224 232L226 226L225 218L224 215L220 210L217 206L212 201L209 198L203 193L200 191L195 186L192 183L186 178L184 176L179 170L176 167L172 162L169 154L169 146L171 138L175 131L177 128L182 123L185 120L190 117L198 113L200 112L206 110L214 107L222 105L225 104L230 102L238 99L242 96L247 92L251 89L255 84L257 81L261 74L264 70L267 65L271 58L272 56L276 50L279 45L283 41L287 35L290 32L295 28L302 26L306 24L311 21L314 17L317 10L318 2L319 0"/><path d="M144 335L141 336L137 336L130 338L122 342L119 344L114 350L112 352L109 358L105 366L104 370L103 375L100 382L97 387L94 391L89 396L85 399L81 402L74 403L66 403L58 401L56 400L50 395L47 392L44 386L41 381L39 377L35 370L33 364L31 361L27 354L24 350L21 345L17 341L11 337L10 336"/><path d="M600 333L595 335L592 336L587 342L584 345L581 350L577 358L576 361L574 366L572 374L570 382L569 390L568 398L568 406L569 414L571 422L575 430L576 433L582 438L585 440L590 442L598 444L600 444"/><path d="M0 444L5 447L8 449L9 454L14 462L16 465L19 470L23 475L26 479L30 486L32 489L34 494L38 502L40 505L43 510L47 517L48 520L53 526L56 529L62 533L67 536L71 537L78 537L86 537L89 536L94 535L102 531L106 528L111 525L115 521L119 518L126 514L129 512L134 510L142 509L150 508L158 508L166 509L174 510L182 511L185 512L190 514L197 519L200 522L203 527L206 534L206 542L206 550L205 558L204 566L203 574L201 582L200 590L200 592L200 598L200 600"/><path d="M328 568L328 567L330 562L330 560"/><path d="M320 592L320 591L321 586L322 584"/><path d="M135 0L135 6L134 14L132 22L129 28L127 31L122 37L119 40L114 44L107 47L104 48L98 51L90 53L83 56L80 56L74 59L66 62L62 64L57 67L53 71L51 78L50 86L51 94L52 102L54 110L56 114L57 119L59 126L61 134L63 142L63 150L64 156L64 159L66 166L69 174L71 180L73 183L75 190L79 198L80 201L82 206L83 214L84 222L83 230L82 238L80 243L78 247L73 254L72 256L66 260L58 263L54 264L49 264L42 265L34 264L32 264L26 263L18 263L10 262L2 262L0 262"/><path d="M349 56L351 52L353 49L353 48"/><path d="M341 64L343 62L348 57L349 56"/><path d="M319 72L320 72L326 70L334 67L340 65L341 64"/><path d="M286 80L287 78L294 75L302 74L310 73L317 72L319 72"/><path d="M277 88L279 86L284 81L286 80"/><path d="M270 96L271 94L276 89L277 88"/><path d="M261 104L263 102L268 97L270 96"/><path d="M250 112L255 109L260 105L261 104"/><path d="M235 120L239 118L246 115L250 112L250 112"/><path d="M220 128L223 126L230 123L235 120L235 120"/><path d="M210 136L215 132L219 129L220 128"/><path d="M205 144L207 140L210 137L210 136"/><path d="M446 219L441 226L441 234L440 241L440 244L440 250L439 258L439 266L439 274L439 282L438 290L439 298L440 304L442 305L450 307L457 306L459 302L460 294L460 286L460 278L460 270L459 262L459 254L459 246L459 238L458 230L457 223L454 220L450 218Z"/><path d="M254 256L255 252L257 249L257 248"/><path d="M592 263L591 264L586 266L580 271L577 274L573 279L570 286L568 292L568 295L567 302L567 310L565 318L563 326L561 334L560 338L559 343L557 350L555 358L554 366L552 374L552 376L551 382L549 390L547 398L545 406L544 408L541 414L537 422L536 425L534 430L531 438L529 446L529 454L529 462L530 470L531 478L533 486L535 494L536 496L542 502L544 504L550 506L558 506L566 505L573 504L576 504L582 503L590 502L598 501L600 501"/><path d="M242 272L246 267L249 264L249 264"/><path d="M234 280L238 275L241 272L242 272"/><path d="M227 288L231 283L233 280L234 280"/><path d="M135 296L138 294L146 292L154 292L162 294L168 296L169 298L169 304L166 305L158 307L150 307L142 306L136 304L135 302L135 298Z"/><path d="M223 296L224 295L226 290L227 288"/><path d="M231 408L232 404L232 401L233 400"/><path d="M224 448L224 446L224 441L224 440"/><path d="M0 501L6 503L9 504L14 508L18 511L23 516L25 519L30 526L32 528L36 534L39 538L45 543L48 545L54 548L62 551L66 552L71 553L78 553L86 554L94 554L102 554L110 554L118 553L126 552L128 552L134 550L141 545L144 543L150 542L155 543L158 550L156 558L153 562L146 564L142 567L139 574L137 582L136 584L135 590L135 598L135 600"/><path d="M320 511L315 512L312 512L306 513L298 513L294 512L293 512"/><path d="M383 552L384 551L386 546L387 544"/><path d="M372 568L375 564L378 561L378 560"/><path d="M367 576L368 575L371 570L372 568"/><path d="M360 592L360 591L362 586L363 584"/><path d="M119 0L118 6L116 14L113 22L112 24L106 30L104 32L98 36L91 39L88 40L82 42L74 44L66 46L58 47L50 47L42 47L34 47L26 46L18 42L15 40L10 34L8 30L5 25L2 18L0 13L0 12"/><path d="M446 0L447 6L448 9L449 8L451 2L452 0"/><path d="M600 12L599 15L597 22L594 30L592 35L592 39L591 46L591 54L591 62L591 70L592 75L593 79L596 86L599 92L600 93"/><path d="M448 64L447 64L442 65L434 69L430 71L425 75L420 79L417 83L414 87L409 93L406 96L401 98L394 99L386 99L379 97L376 96L373 90L373 82L375 76L377 73L379 66L380 64"/><path d="M0 93L2 95L7 99L10 103L13 110L16 114L18 119L20 126L23 133L24 136L26 142L26 150L29 158L31 163L34 167L38 174L40 176L43 182L47 188L49 191L51 198L54 206L55 214L52 222L49 226L43 231L40 232L34 235L26 237L18 238L10 238L2 239L0 239"/><path d="M284 104L287 102L294 98L302 97L310 97L318 97L326 99L334 101L340 103L343 107L345 111L346 118L346 126L345 134L345 142L345 150L346 158L348 166L351 173L353 176L358 180L363 183L367 185L374 188L382 191L385 192L390 194L396 199L399 202L402 207L403 214L404 222L404 230L404 238L403 246L402 254L402 262L401 270L400 278L400 282L400 287L399 294L399 302L397 310L393 317L391 320L386 322L378 325L370 327L365 328L361 328L354 329L346 331L340 335L338 342L338 350L339 358L340 366L342 374L344 378L347 383L351 387L358 391L360 392L366 393L374 394L382 393L384 392L390 389L395 385L399 380L401 377L404 370L407 362L408 358L409 353L413 346L416 342L422 338L425 336L430 335L438 334L446 333L454 333L462 332L470 330L474 328L479 326L485 321L488 318L491 313L493 306L494 298L494 290L495 282L495 274L495 266L495 258L495 250L494 242L493 234L492 226L492 218L492 210L493 202L495 197L498 193L503 190L510 187L515 184L519 183L526 179L531 177L535 174L542 170L545 168L550 165L556 161L559 157L563 153L562 146L560 143L554 138L551 136L546 134L538 131L532 129L529 127L522 124L514 122L506 121L498 120L490 121L483 126L480 134L480 136L480 142L480 150L479 158L477 166L473 173L471 176L466 178L458 180L450 180L442 180L434 178L431 176L426 172L423 169L421 162L420 154L420 146L420 138L421 130L423 124L425 121L430 116L438 113L446 112L448 112L454 112L462 111L468 106L470 98L471 96"/><path d="M274 112L279 108L283 105L284 104"/><path d="M263 120L264 119L270 115L274 112L274 112"/><path d="M249 128L254 125L261 121L263 120"/><path d="M236 136L239 134L246 130L249 128L249 128"/><path d="M228 144L231 141L235 137L236 136"/><path d="M592 239L590 240L585 241L578 244L571 247L568 249L562 254L560 256L556 262L553 268L551 271L549 278L547 286L546 294L546 302L546 310L545 318L544 326L544 328L543 334L542 342L541 350L540 358L539 366L539 374L538 382L536 387L535 391L532 398L529 405L527 408L523 414L521 419L518 423L515 430L512 435L510 439L508 446L508 454L508 462L509 470L510 478L511 486L512 492L512 495L514 502L515 510L518 518L520 522L522 527L527 532L533 535L536 536L542 537L548 536L551 536L558 534L566 530L570 528L575 526L582 524L590 522L598 521L600 521"/><path d="M311 328L312 328L318 327L326 325L330 321L331 320"/><path d="M273 336L278 333L286 330L294 329L302 328L309 328L311 328"/><path d="M266 344L271 339L273 336L273 336"/><path d="M262 352L264 349L266 345L266 344"/><path d="M256 384L256 382L256 377L257 376"/><path d="M0 521L6 523L13 527L16 529L20 534L23 540L26 543L31 549L33 552L38 555L46 558L51 560L55 561L62 561L70 562L78 563L86 564L94 565L101 567L104 569L110 574L112 576L116 582L118 590L119 598L119 600"/><path d="M397 568L399 564L401 561L402 560"/><path d="M389 576L391 574L395 569L397 568"/><path d="M382 584L384 582L388 577L389 576"/><path d="M109 0L108 6L106 14L104 17L100 22L97 26L90 30L86 32L81 34L74 35L66 36L58 36L50 34L45 32L41 30L35 25L32 23L29 18L27 10L26 8"/><path d="M568 0L568 1L568 6L568 14L569 22L569 30L570 38L570 46L570 54L571 62L571 70L571 78L570 86L569 94L568 96L565 102L561 107L554 111L552 112L546 113L538 114L530 113L527 112L522 110L514 107L508 105L505 103L498 98L496 96L491 90L488 85L487 81L484 74L481 66L480 62L479 57L478 50L478 42L479 34L480 26L480 24L481 18L481 10L482 8"/><path d="M295 120L298 119L305 119L308 121L313 124L318 129L320 133L322 138L323 146L323 154L323 162L321 169L319 173L316 177L310 181L302 183L294 182L286 179L280 176L278 175L271 171L266 168L262 165L256 160L254 158L251 150L254 143L258 140L264 136L266 135L274 131L279 128L282 126L290 122L293 121Z"/><path d="M0 199L3 200L7 205L8 208L8 208L2 210L0 210"/><path d="M529 200L534 198L542 195L550 194L558 193L566 193L574 194L582 195L590 198L598 199L600 199"/><path d="M518 208L519 206L526 202L529 200L529 200"/><path d="M592 212L588 215L585 217L578 220L572 223L569 225L562 228L554 231L552 232L546 235L538 239L536 240L530 241L526 240L521 237L519 233L515 226L514 218L514 216"/><path d="M355 222L362 216L370 218L374 226L372 234L369 241L366 243L360 240L359 238L356 230L354 226Z"/><path d="M474 344L478 343L486 342L494 341L502 339L510 339L517 343L520 346L521 351L523 358L524 366L524 374L524 382L521 390L520 393L517 398L513 405L512 408L507 414L504 418L500 423L497 426L491 431L488 433L482 436L474 439L472 440L466 441L458 442L450 442L445 447L445 454L447 459L454 460L462 460L470 463L473 464L478 467L482 471L487 477L488 480L491 486L494 494L496 499L497 503L498 510L500 518L502 526L503 533L505 536L509 542L512 545L518 549L522 552L527 553L534 556L542 557L550 559L555 560L559 561L566 566L568 569L569 574L569 582L568 590L568 597L568 600L568 600"/><path d="M294 352L296 352L302 351L305 352L310 354L316 359L319 363L322 367L325 374L327 381L328 384L331 390L335 395L340 399L343 401L350 402L358 403L366 404L374 404L382 403L390 401L393 400L398 397L403 393L407 388L409 385L412 378L415 372L417 369L421 362L423 358L428 353L431 351L438 348L446 346L454 345L462 345L470 344L473 344L474 344"/><path d="M281 360L286 356L293 353L294 352"/><path d="M276 368L279 363L281 360L281 360"/><path d="M272 384L272 383L273 378L273 376"/><path d="M0 544L0 544L0 544L0 544"/><path d="M30 576L31 574L38 572L46 570L54 569L62 569L70 569L78 570L86 572L94 575L97 576L102 581L105 584L107 590L109 598L109 600"/></g></svg>
