<svg xmlns="http://www.w3.org/2000/svg" viewBox="0 0 600 600"><path d="M100 0L99 6L97 14L96 18L95 23L92 30L90 38L91 46L93 54L96 57L99 62L103 67L107 71L111 74L118 78L120 80L126 82L134 85L142 86L150 87L158 85L164 81L167 78L170 73L172 66L174 58L174 50L174 42L173 34L172 26L171 18L170 10L170 2L170 0M503 0L504 4L504 7L507 14L511 21L513 24L518 30L520 32L526 37L529 40L534 44L539 47L543 50L550 54L553 56L558 59L566 63L568 64L574 67L582 70L590 72L592 72L598 73L600 73M62 48L64 44L65 41L65 40M55 56L56 55L61 50L62 48M41 64L46 61L53 57L55 56M10 72L15 71L22 70L30 68L38 65L41 64L41 64M0 73L6 73L10 72L10 72M423 254L418 256L414 258L406 261L400 264L398 265L390 269L384 272L382 273L375 277L371 281L367 285L365 290L363 298L362 306L363 314L364 322L366 330L367 337L369 341L372 346L376 352L379 353L386 356L394 357L402 357L410 356L418 356L426 356L434 355L442 355L450 355L458 354L465 353L469 352L474 350L482 348L489 345L493 344L498 342L506 339L513 337L518 336L522 334L530 332L538 330L544 328L546 327L553 323L557 318L560 312L561 310L562 302L561 295L560 291L557 286L553 280L550 277L545 272L542 270L535 265L532 263L526 261L518 258L512 256L510 256L502 254L494 252L486 251L478 250L470 250L462 249L454 249L446 249L438 250L430 252L426 253ZM592 352L592 352L586 358L584 361L583 366L581 374L581 382L583 390L584 392L589 398L592 401L598 404L600 404M216 366L215 367L211 374L208 378L206 383L202 390L200 392L196 398L193 403L190 407L185 412L182 415L177 420L173 423L169 426L162 430L157 432L153 433L146 433L142 432L137 431L130 429L122 426L119 424L114 422L106 419L101 416L97 415L90 413L82 411L74 411L66 412L58 413L52 415L49 417L44 422L42 430L41 438L40 446L40 454L40 462L40 467L40 471L39 478L38 486L36 494L33 502L32 504L28 510L25 514L19 519L16 520L10 523L2 525L0 526M22 400L23 399L26 394L27 392M0 404L6 404L14 403L20 401L22 400M344 407L343 408L338 410L330 414L326 416L321 418L314 421L306 423L298 423L290 420L286 417L281 413L277 409L276 408M376 464L376 461L376 457L376 456M146 472L151 472L154 472L159 473L166 475L174 478L179 480L183 481L190 483L198 485L206 486L214 488L218 488L223 488L230 489L238 488L243 488L247 488L254 486L262 485L270 482L276 480L279 479L286 476L294 473L302 473L310 474L318 477L322 480L327 482L334 487L336 488L342 492L348 495L351 497L358 499L366 497L368 496L371 490L373 482L375 474L376 466L376 464M128 480L134 476L142 473L146 472L146 472M120 488L126 482L128 480L128 480M115 496L119 490L120 488L120 488M112 504L112 503L114 498L115 496M592 527L590 528L585 529L578 533L574 536L569 538L562 543L560 544L554 548L549 551L545 554L538 558L536 560L530 564L525 567L521 571L517 575L513 579L510 583L506 590L504 595L503 599L503 600M68 592L71 589L78 587L86 588L94 591L96 592L99 598L100 600M490 0L491 6L493 14L496 18L498 23L503 29L505 32L510 38L512 40L518 46L520 48L526 54L529 56L534 61L538 64L543 69L546 72L551 78L552 80L558 85L561 88L566 92L571 95L575 100L578 103L582 110L584 114L586 119L587 126L588 134L589 142L589 150L591 157L593 160L598 162L600 162M182 88L183 85L186 81L186 80M55 96L56 96L62 94L70 94L78 95L82 96L87 97L94 99L102 101L110 102L118 103L126 103L134 103L142 104L150 104L158 103L166 100L173 97L176 95L180 90L182 88M40 104L40 104L46 100L53 97L55 96M28 120L31 114L32 112L32 112M24 152L24 150L24 145L24 144M16 160L16 160L22 154L24 152M0 162L6 162L14 160L16 160M71 197L68 202L66 210L68 218L71 225L74 227L82 229L89 231L92 232L98 234L106 237L112 240L114 241L122 245L128 248L131 249L138 252L146 254L154 255L162 253L169 250L174 248L177 245L182 239L185 236L189 231L193 227L196 222L196 214L192 209L189 207L182 204L174 201L169 200L166 200L158 199L150 198L142 198L134 198L126 198L118 197L110 196L102 195L94 193L86 193L78 194L74 195ZM440 240L440 240L434 241L426 244L418 247L416 248L410 251L402 254L399 256L394 258L386 262L382 264L377 266L370 270L368 272L362 278L360 281L357 286L355 294L355 302L355 310L355 318L355 326L355 334L356 342L356 350L355 358L354 366L352 371L350 375L345 381L343 384L338 388L333 391L329 394L322 398L317 400L313 401L306 403L298 403L290 401L288 400L282 396L278 393L273 388L270 385L265 379L263 376L258 370L256 368L251 362L248 358L245 353L241 348L239 345L234 338L232 334L228 329L225 325L218 323L211 327L208 329L207 334L205 342L203 350L201 358L200 361L199 366L197 374L194 382L192 385L189 390L185 397L183 400L178 405L175 408L170 412L164 415L161 417L154 419L146 419L138 418L133 416L129 415L122 412L114 409L112 408L106 405L98 401L96 400L90 397L82 395L74 395L66 394L61 392L57 390L52 385L49 379L48 376L45 370L42 362L40 358L38 353L33 347L31 344L26 339L23 336L18 333L10 329L5 328L1 328L0 327M517 344L519 343L526 342L534 340L542 340L550 340L558 341L562 343L566 350L568 355L568 359L569 366L569 374L570 382L571 390L573 398L575 404L577 407L582 414L584 416L590 420L598 422L600 423M493 352L495 351L502 349L510 346L516 344L517 344M472 360L472 360L478 358L486 355L492 352L493 352M420 368L423 367L430 366L438 365L446 365L454 364L462 363L470 361L472 360M399 376L400 375L406 373L414 370L419 368L420 368M390 384L391 382L397 377L399 376M0 423L6 423L9 424L14 427L19 431L23 438L24 440L25 446L25 454L24 462L24 465L23 470L21 478L17 486L16 488L10 493L5 496L1 497L0 497M139 496L143 494L150 493L158 493L166 493L174 494L182 495L190 495L197 496L200 496L206 496L214 497L222 497L230 497L238 496L243 496L247 496L254 495L262 494L270 493L278 492L286 491L294 490L302 489L310 491L318 494L321 496L326 499L332 503L335 505L342 510L344 512L350 518L353 520L358 524L366 527L368 528L368 528L374 526L378 521L381 514L383 506L384 502L384 497L385 490L385 488M131 504L135 500L138 497L139 496M584 502L582 504L577 507L573 511L569 515L566 519L561 524L559 527L554 533L551 536L546 540L541 543L537 546L531 551L528 553L522 557L519 560L514 564L510 567L505 572L502 575L497 581L495 584L492 590L490 598L490 600M128 512L128 512L130 506L131 504M480 0L480 1L481 6L484 14L487 20L489 23L494 30L496 32L500 38L503 42L508 47L511 51L515 55L519 60L521 63L526 70L528 73L530 78L535 84L539 87L543 90L549 95L552 97L558 102L560 104L565 110L568 114L570 119L573 126L575 134L576 142L576 149L576 152L577 158L581 166L583 170L590 174L595 176L599 176L600 177M190 96L191 93L194 89L194 88M182 104L184 103L188 98L190 96M164 112L167 111L174 109L181 105L182 104M110 120L112 120L118 118L126 116L134 115L142 114L150 114L158 113L163 112L164 112M98 128L102 125L109 121L110 120M360 128L357 130L352 136L351 138L349 146L350 153L352 158L355 161L362 165L369 168L372 168L376 168L379 167L385 164L390 158L392 150L391 142L387 134L384 128L381 127L374 124L366 126L362 127ZM91 136L95 132L97 129L98 128M0 177L6 177L14 177L22 178L30 179L37 183L40 185L43 190L46 198L48 203L49 207L50 214L52 222L55 230L56 234L58 239L63 246L64 248L70 252L78 253L86 255L89 256L94 258L102 262L105 264L110 268L114 271L119 277L121 280L124 286L127 294L128 301L128 304L134 309L139 312L143 313L150 313L158 314L166 316L172 319L175 321L181 326L184 329L187 334L190 342L191 350L191 358L191 366L189 374L186 382L184 386L181 391L177 396L174 399L169 404L164 407L161 409L154 410L146 411L138 409L134 408L129 407L122 404L116 401L113 399L106 395L102 392L97 389L91 385L88 383L82 379L74 378L69 376L65 373L62 369L59 362L56 358L54 353L49 346L48 344L44 338L41 333L37 329L33 325L29 321L25 317L19 313L16 310L10 306L7 304L2 300L0 299M223 232L224 231L227 226L228 224M440 231L439 232L434 233L426 236L420 239L417 241L410 244L404 247L401 249L394 252L387 255L384 257L378 259L371 263L368 265L362 270L360 272L356 278L353 285L352 288L350 294L350 302L350 310L350 318L349 326L349 334L348 342L347 350L345 358L344 360L341 366L337 372L334 375L329 380L325 383L321 386L314 389L306 392L304 392L303 392L298 392L290 389L283 385L280 383L275 378L272 375L267 370L264 366L261 361L257 357L254 353L250 346L248 343L245 338L242 330L240 325L239 321L237 314L236 306L235 298L235 290L233 282L232 276L231 273L228 266L225 258L224 255L222 250L220 242L222 234L223 232M509 352L511 351L518 349L526 347L534 347L542 347L550 350L553 352L558 358L560 362L561 367L562 374L563 382L564 390L565 398L567 406L568 408L571 414L575 421L577 424L582 429L585 432L590 435L598 438L600 438M488 360L488 360L494 358L502 354L507 352L509 352M469 368L471 367L478 364L486 361L488 360M425 376L430 375L438 373L446 372L454 372L462 370L467 368L469 368M408 384L414 380L422 377L424 376L425 376M400 392L406 386L408 384L408 384M396 400L399 394L400 392L400 392M392 424L392 423L392 418L393 416M0 438L4 440L7 441L10 446L10 454L9 462L8 465L2 469L0 471M600 471L598 472L593 473L586 478L584 480L578 485L575 488L570 494L568 496L563 502L560 505L557 510L553 516L550 519L546 526L544 528L539 534L536 537L530 542L528 544L522 548L518 551L513 555L509 559L505 563L500 567L497 570L493 575L489 580L486 583L482 590L480 597L480 600L480 600M200 504L206 504L214 503L222 503L230 502L238 502L246 502L254 501L262 501L270 500L278 500L286 499L294 499L302 499L310 500L317 503L320 505L326 509L330 511L335 515L339 519L343 523L347 527L351 530L357 535L360 537L366 539L374 539L381 537L384 535L387 530L389 522L390 514L391 506L392 498L392 496M160 512L166 510L174 508L182 507L190 505L198 504L200 504L200 504M154 520L158 514L160 512L160 512M463 0L464 2L465 7L469 14L472 17L476 22L479 26L483 31L487 36L490 39L495 45L497 48L501 54L504 58L506 63L510 70L511 78L512 81L515 86L519 91L524 95L527 97L534 101L538 103L543 106L548 111L551 114L555 119L559 125L561 128L563 134L564 142L565 150L565 158L567 166L568 170L570 175L575 181L577 184L582 186L590 188L598 189L600 189M295 71L290 72L286 75L280 80L279 83L277 90L278 98L280 103L283 106L288 112L291 113L298 115L306 115L314 117L320 119L322 122L327 129L328 133L329 138L330 146L331 154L334 161L337 164L342 168L346 171L353 175L356 177L362 179L370 180L378 181L386 180L392 177L395 174L400 168L401 165L402 158L403 150L403 142L401 134L400 129L399 126L395 119L391 114L388 111L382 107L374 106L366 106L358 105L351 105L348 104L342 101L336 96L334 94L329 87L327 84L323 79L318 76L312 72L310 72L302 71L298 71ZM206 96L208 90L208 88L208 88M198 112L199 110L202 105L203 104M188 120L191 118L196 113L198 112M139 128L143 127L150 127L158 126L166 126L174 125L182 123L187 120L188 120M123 136L127 133L134 130L138 128L139 128M118 144L119 141L122 137L123 136M0 189L6 190L14 191L16 192L22 195L27 199L31 204L33 207L36 214L39 222L40 226L41 231L42 238L42 246L42 254L40 261L39 264L34 269L27 272L24 272L18 273L10 274L2 274L0 274M448 215L444 216L441 216L434 219L427 223L424 225L418 229L415 232L410 235L403 239L400 241L394 244L388 247L385 249L378 252L372 255L369 257L362 262L359 264L354 270L352 273L349 278L346 286L345 294L344 302L344 310L344 312L344 318L343 326L342 334L340 342L337 350L336 353L333 358L329 364L326 367L321 371L315 375L312 376L306 378L298 379L291 377L288 376L282 371L279 368L274 363L271 360L266 354L264 352L260 346L257 341L255 337L252 330L249 322L248 319L247 314L246 306L245 298L245 290L244 282L244 274L243 266L242 258L241 250L241 242L242 234L243 226L244 218L245 216M62 288L66 286L74 285L81 286L86 289L89 292L91 298L91 306L90 314L89 320L86 322L78 325L70 324L65 320L63 317L59 310L57 302L58 294L60 290ZM103 336L106 334L114 332L122 331L130 331L138 330L146 330L154 331L162 333L168 336L170 338L176 344L177 347L180 354L181 362L180 370L178 378L176 384L174 386L169 392L166 395L159 399L156 400L150 401L143 401L138 400L134 398L126 395L121 392L118 390L112 385L109 382L105 375L104 372L102 366L100 358L100 350L100 342L102 338ZM506 360L511 358L518 356L526 355L534 355L542 357L546 359L551 366L552 368L553 374L554 382L555 390L556 398L558 406L559 414L560 417L562 422L564 430L567 438L568 441L569 446L569 454L568 459L567 463L564 470L561 477L559 480L556 486L553 491L550 495L545 502L544 504L540 510L537 516L535 519L531 526L528 529L524 534L521 538L515 543L512 545L507 550L504 552L498 558L496 560L490 565L487 568L482 573L479 576L474 582L472 584L467 590L464 597L463 600L463 600M488 368L494 365L502 362L506 360L506 360M473 376L478 374L486 369L488 368L488 368M432 384L432 384L438 383L446 381L454 381L462 380L470 377L473 376L473 376M415 392L416 392L422 388L430 385L432 384M407 400L408 399L413 394L415 392M399 424L400 420L400 417L401 416M216 512L216 512L222 511L230 510L238 509L246 509L254 509L262 509L270 508L278 509L286 509L294 509L302 509L310 511L313 512L318 515L325 519L328 521L333 526L336 529L342 534L344 536L350 540L354 543L359 546L366 549L374 551L382 550L390 545L392 544L395 538L398 530L399 522L399 514L399 506L399 504M198 520L199 519L206 516L214 513L216 512M422 0L423 6L424 9L428 14L431 18L438 21L446 23L450 24L455 24L462 28L467 31L471 35L475 39L479 43L483 47L487 53L489 56L492 62L495 70L496 78L496 80L498 86L502 94L504 97L510 102L512 104L518 108L526 111L528 112L534 116L539 119L543 123L546 127L550 134L552 138L553 143L554 150L554 158L554 166L553 174L552 179L551 183L547 190L544 193L538 195L530 196L522 197L514 197L506 197L498 198L490 198L482 199L474 199L466 200L461 200L457 200L450 200L442 200L434 200L426 201L418 203L414 207L410 214L408 217L405 222L401 227L397 231L393 234L386 239L384 240L378 243L370 247L368 248L362 252L358 255L353 260L350 263L346 270L344 274L342 279L340 286L339 294L338 302L338 310L337 318L336 325L336 328L334 334L331 342L329 347L326 351L321 356L317 359L313 362L306 365L298 365L290 363L286 361L281 357L276 353L273 349L269 345L265 339L264 336L261 330L258 322L256 317L255 313L254 306L254 298L254 290L253 282L253 274L253 266L252 258L252 250L252 242L253 234L254 226L256 218L256 216L257 210L257 202L257 194L256 187L256 184L254 178L249 172L246 169L241 166L234 162L231 160L226 154L224 146L225 138L225 130L226 122L226 114L226 106L226 98L226 90L225 82L224 77L224 73L222 66L220 58L218 50L216 45L215 41L213 34L211 26L209 18L208 10L208 8M279 63L276 65L270 68L264 72L262 74L257 81L255 85L253 90L252 98L252 106L253 114L256 120L257 122L262 129L265 133L269 137L273 141L278 145L280 150L283 153L290 156L298 158L304 159L307 161L313 165L318 168L322 171L328 175L331 177L338 181L344 184L346 185L354 188L362 191L367 192L370 193L378 194L386 195L394 195L401 194L406 191L409 188L411 182L412 174L413 166L414 158L414 150L414 142L413 134L412 126L410 118L408 113L407 110L403 103L399 98L396 95L391 90L386 88L382 86L374 86L366 85L358 83L353 80L350 77L344 72L342 71L334 67L328 64L326 63L318 62L310 60L302 60L294 60L286 62L282 62ZM0 203L6 204L13 207L16 208L21 214L24 219L25 223L27 230L26 238L25 244L23 247L18 252L12 255L9 257L2 258L0 258M566 208L568 207L574 205L582 204L590 203L598 203L600 203M560 224L560 223L561 218L561 216M131 351L138 348L146 346L154 347L161 350L164 354L168 360L168 362L169 370L168 376L167 378L162 385L158 387L150 389L142 388L135 386L131 383L127 379L124 374L123 366L125 358L128 353L129 352ZM510 368L511 367L518 365L526 364L534 365L538 367L542 374L544 379L544 383L545 390L546 398L547 406L547 414L548 422L548 430L548 438L549 446L548 454L547 462L545 470L544 472L541 478L537 486L536 488L533 494L529 500L527 503L523 510L520 515L518 519L515 526L512 530L509 535L505 539L501 543L497 547L492 551L489 554L483 559L480 561L474 566L471 568L466 572L459 575L456 576L450 577L442 578L434 580L428 583L425 588L423 591L422 598L422 600M495 376L496 376L502 372L508 369L510 368M480 384L486 381L493 377L495 376M437 392L439 391L446 390L454 390L462 389L470 387L478 385L480 384L480 384M421 400L423 398L430 394L436 392L437 392M413 408L415 405L419 401L421 400M406 424L408 420L409 417L409 416M234 520L239 519L246 519L254 518L262 518L270 518L278 519L286 519L294 519L302 519L305 520L310 522L318 526L321 528L326 532L331 535L335 539L340 543L343 545L350 550L352 552L358 556L365 559L368 561L374 562L382 563L390 562L395 560L399 558L403 553L406 546L408 538L408 532L408 529L408 525L408 521L408 514L407 512M222 528L223 526L230 522L234 520L234 520M214 544L215 540L217 537L217 536M208 592L208 589L208 585L208 584M399 0L399 6L399 14L399 22L398 30L395 38L392 41L386 44L380 47L377 49L370 52L362 54L354 54L346 53L338 52L330 52L322 51L314 51L306 51L298 51L290 51L282 52L274 53L266 55L258 56L256 56L250 57L246 56L241 55L235 50L232 47L229 42L226 34L224 30L223 25L221 18L219 10L219 8M418 48L426 46L434 45L442 44L450 44L457 46L462 48L466 51L471 56L473 59L476 66L477 74L477 82L478 90L480 96L481 99L485 105L489 110L492 113L498 117L503 120L506 122L514 125L520 128L523 129L529 132L534 137L536 141L538 146L538 154L537 161L535 165L532 169L526 173L519 175L515 176L510 177L502 178L494 179L486 180L478 181L470 181L462 182L454 182L446 181L439 179L434 175L431 172L429 166L427 158L427 150L427 142L427 134L427 126L426 118L425 110L424 104L424 101L422 94L419 86L416 80L415 77L412 70L410 62L412 54L416 48L416 48ZM280 192L282 190L290 186L298 184L306 185L314 187L322 190L328 192L330 193L338 196L345 199L348 201L354 203L362 206L367 208L370 210L376 215L378 218L378 225L375 228L371 233L366 236L360 240L358 242L352 247L349 250L344 256L343 258L339 266L336 272L335 274L333 282L332 290L332 298L331 306L330 314L329 321L328 326L326 330L322 337L319 342L316 345L310 349L302 352L294 351L287 347L282 343L279 340L274 335L272 331L269 326L266 318L264 311L264 308L263 302L263 294L263 286L263 278L263 270L263 262L263 254L263 246L264 240L264 238L265 230L267 222L269 214L271 207L272 203L275 198L278 194ZM501 392L506 390L514 388L522 388L528 392L529 394L530 402L530 410L530 418L529 426L528 432L528 435L527 442L527 450L526 458L524 466L522 473L520 478L518 482L515 490L512 496L511 498L507 506L504 512L503 514L499 522L496 528L495 530L490 537L487 540L482 544L478 547L472 552L470 553L462 557L454 559L446 559L438 558L431 555L427 551L424 546L422 542L420 534L419 526L418 518L417 510L416 505L415 502L414 494L413 486L412 478L411 470L411 462L410 454L410 446L411 438L413 430L415 423L417 420L420 415L425 410L428 407L434 403L442 401L447 400L450 400L458 399L466 399L474 398L482 397L490 395L497 393L499 392ZM248 536L254 534L262 533L270 532L278 532L286 532L294 531L302 532L310 534L314 536L319 538L326 543L328 544L334 549L337 552L342 556L347 559L351 563L357 567L360 569L366 573L372 576L375 577L382 579L390 583L392 584L396 590L398 598L399 600M236 544L239 541L246 537L248 536L248 536M229 552L231 549L235 545L236 544M223 568L224 565L225 561L225 560" fill="none" stroke="#000" stroke-width="1.1"/></svg>
