<svg xmlns="http://www.w3.org/2000/svg" viewBox="0 0 600 600"><g fill="none" stroke="#000" stroke-width="1.4"><path d="M423 0L424 4L424 7L429 14L432 17L438 20L446 22L454 24L456 24L462 27L467 31L471 34L476 39L479 42L483 47L487 52L489 55L493 62L495 70L496 72L496 78L498 86L503 94L504 96L510 102L513 104L518 107L526 111L529 112L534 115L540 119L543 122L547 127L551 134L552 136L553 142L554 150L554 158L554 166L554 174L553 182L552 185L549 190L545 194L538 196L530 197L522 197L514 198L506 198L498 199L490 199L482 200L476 200L473 200L466 200L458 201L450 201L442 201L434 201L426 202L418 205L415 208"/><path d="M398 231L393 235L387 239L384 240L378 243L371 247L368 248L362 253L358 255L353 260L351 263L346 270L344 274L342 279L340 286L339 294L339 302L338 310L338 318L336 326L336 328L334 334L332 342L329 348L326 351L321 357L318 360L313 363L306 365L298 366L290 364L285 361L281 358L276 353L273 350L269 345L265 339L263 336L260 330L257 322L256 318L255 313L254 306L254 298L253 290L253 282L253 274L252 266L252 258L252 250L252 242L252 234L254 226L255 218L256 211L256 208L256 202L256 194L256 192L255 186L252 178L249 173L243 169L240 167L234 164L229 161L225 156L222 153L222 146L222 138L223 130L224 123L224 120L225 114L225 106L225 98L225 90L224 85L224 81L223 74L222 66L220 58L217 50L216 47L215 42L213 34L211 26L209 18L208 12L208 9L208 8"/><path d="M424 246L420 247L417 249L410 251L402 255L400 256L394 259L386 263L383 264L378 267L371 271L368 273L363 278L360 282L358 287L356 294L355 302L355 310L356 318L356 326L356 334L357 342L357 350L357 358L356 366L354 374L352 377L347 382L344 385L338 390L336 392L330 395L323 399L320 400L314 403L306 405L298 405L290 403L286 400L281 397L277 393L273 389"/><path d="M255 369L250 362L248 360L244 354L241 350L237 345L233 339L231 336L226 331L218 330L212 334L209 339L207 343L205 350L203 358L201 366L200 368L198 374L195 382L193 387L190 391L186 398L184 400L179 406L176 409L170 413L166 416L161 418L154 420L146 420L138 419L130 417L128 416L122 414L114 410L110 408L105 406L98 402L93 400L89 399L82 397L74 397L66 396L58 394L55 392L50 386L48 384L46 378L43 370L41 363L39 360L36 354L33 349L29 345L25 341L20 337L17 335L10 332L2 330L0 330"/><path d="M280 64L277 65L270 68L264 72L263 74L258 82L256 87L255 90L253 98L254 106L255 113L256 117L259 122L264 128L266 130L272 136L274 138L281 143L284 146L288 152L290 153L298 155L305 157L309 161L314 164L319 168L322 170L329 175L332 177L338 180"/><path d="M368 192L371 192L378 193L386 194L394 194L400 193L403 191L408 186L410 182L412 174L413 166L413 158L413 150L413 142L412 134L411 126L409 119L408 114L406 110L402 103L399 99L395 95L390 91L385 88L382 87L374 87L366 86L358 84L352 80L350 78L344 73L341 71L334 67L328 64L325 64L318 62L310 61L302 60L294 61L286 62L282 63"/><path d="M86 199L81 200L78 202L72 206L71 210L71 217L74 219L81 223L84 224L90 226L98 230L104 232L106 233L114 236L121 239L124 241L130 243L138 246"/><path d="M162 247L169 243L174 240L178 237L183 232L186 229L191 222L192 216L192 216L190 214L184 208L182 207L174 204L166 202L158 201L150 200L142 200L134 200L129 200L126 200L118 200L110 199L102 199L94 199L90 199"/><path d="M509 368L511 367L518 365L526 364L534 365L538 367L543 374L544 377L545 382L546 390L547 398L547 406L548 414L548 422L549 430L549 438L549 446L549 454L548 462L545 470L544 473L542 478L538 486L536 489L533 494L529 501L528 504L524 510L521 516L519 519L515 526L513 530L509 535L505 539L501 543L497 547L493 551L489 554L484 559L481 561L474 566L472 568L466 572L460 575L457 577L450 578L442 579L434 581L430 583L425 590L424 593L423 598L423 600"/><path d="M232 520L232 520L238 519L246 518L254 518L262 518L270 518L278 518L286 518L294 519L302 519L306 520L311 521L318 525L322 528L327 531L331 535L335 538L341 543L344 545L350 550L353 552L358 556L365 559L368 560L374 562L382 562L390 561L394 560L399 557L403 553L405 546L407 538L408 530L408 522L407 514L407 512"/><path d="M491 0L492 6L495 14L496 16L499 22L503 28L506 31L511 37L513 40L518 45L521 48L526 52L530 55L535 59L540 63L543 66L548 71L551 75L555 79L559 82L564 87L567 89L574 94L576 96L581 102L584 106L586 111L589 118L591 126L591 134L592 142L592 150L592 152L598 158L600 159"/><path d="M592 502L588 503L585 505L578 510L576 512L570 518L568 520L562 526L560 528L554 534L552 536L546 541L543 544L538 547L532 551L529 554L522 558L520 560L514 565L511 568L506 573L503 576L498 582L496 585L493 590L492 598L491 600"/><path d="M295 488L296 488L301 488L304 488L310 489L318 493L323 495L327 498L334 503L336 504L342 509L345 512L350 516L355 519L359 522L366 525L374 522L377 520L379 514L382 506L383 498L384 492L384 489L385 482L385 480"/><path d="M514 344L518 343L526 341L534 339L542 339L550 338L558 339L565 343L568 346L569 351L570 358L570 366L570 374L571 382L572 390L574 398L576 402L579 407L583 412L587 415L591 418L598 420L600 421"/><path d="M135 496L136 495L142 492L150 490L158 491L166 491L174 492L182 493L190 494L198 495L206 495L214 496L222 496L230 496L238 496L246 495L254 494L262 493L270 492L278 491L286 489L293 488L295 488"/><path d="M128 352L130 351L138 347L146 346L154 346L161 349L165 354L168 359L169 362L169 370L168 376L167 379L162 385L158 388L150 390L142 389L135 386L130 383L127 380L123 374L122 366L124 358L127 354Z"/><path d="M43 96L47 94L54 91L62 90L70 89L78 90L86 93L94 95L96 96L102 98L110 99L118 101L126 101L134 102L142 102L150 102L158 101L166 99L170 96L175 93L179 89L180 88"/><path d="M0 421L6 421L13 423L16 424L21 430L24 434L25 439L26 446L27 454L26 462L25 470L24 474L23 479L19 486L17 491L12 495L9 498L2 500L0 500"/><path d="M0 202L6 203L14 207L16 208L21 214L24 217L26 222L27 230L27 238L25 245L23 248L18 253L14 256L9 257L2 258L0 259"/><path d="M414 368L415 368L422 366L430 365L438 364L446 364L454 363L462 362L467 360L469 360"/><path d="M436 392L439 391L446 390L454 390L462 389L470 387L477 385L479 384"/><path d="M564 208L567 206L574 204L582 203L590 202L598 202L600 202"/><path d="M491 352L495 350L502 348L510 345L513 344L514 344"/><path d="M469 360L471 359L478 357L486 354L490 352L491 352"/><path d="M31 104L32 104L38 99L42 96L43 96"/><path d="M0 159L6 158L14 154L17 152L17 152"/><path d="M394 376L399 374L406 371L412 368L414 368"/><path d="M494 376L496 375L502 372L507 369L509 368"/><path d="M479 384L480 384L486 381L493 377L494 376"/><path d="M420 400L423 398L430 394L435 392L436 392"/><path d="M180 88L183 83L184 80L184 80"/><path d="M20 120L23 114L24 112L24 112"/><path d="M387 384L391 380L394 377L394 376"/><path d="M383 400L384 395L384 392L384 392"/><path d="M126 512L128 507L128 504L129 504"/><path d="M559 224L560 218L560 216L560 216"/><path d="M413 408L415 405L419 401L420 400"/><path d="M406 424L407 419L408 416L408 416"/><path d="M220 528L223 525L230 521L232 520"/><path d="M213 544L215 538L216 536L216 536"/><path d="M208 584L208 581L208 577L208 576"/><g font-family="ui-monospace, Consolas, Menlo, monospace" font-size="10" fill="#000" stroke="none" text-anchor="middle"><text transform="translate(404 223) rotate(-52)" dy="3.5">340</text><text transform="translate(262 377) rotate(50)" dy="3.5">160</text><text transform="translate(356 188) rotate(19)" dy="3.5">340</text><text transform="translate(153 247) rotate(-5)" dy="3.5">160</text></g></g></svg>
