<svg xmlns="http://www.w3.org/2000/svg" viewBox="0 0 600 600"><path d="M198 0L198 6L197 14L195 22L193 30L192 33L190 38L186 46L184 50L181 55L177 60L174 63L169 67L162 71L160 72L154 73L146 74L138 74L130 74L122 75L114 76L106 79L104 80L98 85L95 88L93 94L92 102L92 110L93 118L95 126L96 130L97 135L99 142L100 150L100 158L102 166L103 174L104 179L104 183L105 190L106 198L106 206L107 214L108 222L108 230L110 238L112 242L114 247L119 253L122 256L127 258L134 261L142 262L150 263L158 263L166 262L174 262L182 261L190 260L198 257L201 256L206 253L212 249L215 246L220 241L223 237L225 233L228 226L227 218L225 214L221 209L217 205L213 201L209 197L205 193L201 190L196 185L193 182L188 177L185 174L180 169L177 165L174 161L171 154L171 146L173 138L175 134L178 129L183 124L187 121L191 118L198 114L203 112L207 111L214 108L222 106L227 104L231 103L238 99L243 97L247 93L251 89L255 85L258 81L263 74L264 72L267 66L271 60L273 57L278 50L280 47L284 42L287 38L293 33L296 31L302 29L310 26L313 24L317 18L320 13L321 9L321 2L322 0M136 335L134 336L129 337L122 341L118 343L113 348L111 351L107 358L105 365L104 368L102 374L98 382L96 386L93 391L89 395L84 399L81 401L74 402L66 402L61 400L57 399L51 394L48 391L45 386L41 378L40 376L37 370L33 362L32 360L29 354L25 348L23 345L18 339L14 336L14 336M592 334L591 336L586 341L584 344L580 350L577 357L575 360L573 366L571 374L569 382L568 387L568 391L567 398L567 406L568 414L568 416L569 422L572 430L575 437L577 440L582 445L586 448L591 451L598 454L600 454M0 454L1 456L6 459L10 463L15 467L18 471L23 477L24 480L28 486L31 491L33 495L37 502L40 506L42 511L46 518L48 521L52 526L55 530L62 534L65 536L70 537L78 538L86 538L92 536L95 535L102 532L107 529L111 526L117 521L120 519L126 515L131 512L135 511L142 510L150 509L158 509L166 510L174 511L179 512L183 513L190 517L194 519L199 525L201 528L203 534L204 542L204 550L203 558L202 566L201 574L200 579L199 583L198 590L198 598L198 600M320 544L314 544L312 544L306 544L298 544L296 544M334 560L336 555L336 552L336 552M328 576L328 576L330 570L331 568M135 0L135 6L134 14L132 22L129 29L127 32L122 38L120 40L114 44L107 47L104 49L98 51L90 54L83 56L80 56L74 59L66 62L62 64L57 67L53 71L51 78L50 86L51 94L52 102L55 110L56 114L57 119L59 126L61 134L63 142L63 150L64 155L64 159L66 166L69 174L71 180L73 183L76 190L79 198L80 200L82 206L83 214L84 222L83 230L82 238L80 244L79 247L74 254L72 256L66 260L58 263L56 264L50 265L42 265L34 264L30 264L25 264L18 263L10 263L2 262L0 262M349 56L351 52L353 49L353 48M340 64L343 62L348 57L349 56M317 72L319 72L326 70L334 67L339 65L340 64M285 80L287 78L294 75L302 73L310 73L316 72L317 72M277 88L279 86L284 81L285 80M270 96L271 94L276 89L277 88M261 104L263 102L268 97L270 96M250 112L255 109L260 105L261 104M235 120L239 118L246 114L250 112L250 112M220 128L223 126L230 123L234 120L235 120M210 136L214 132L219 129L220 128M205 144L207 140L209 137L210 136M447 220L442 226L442 234L441 242L441 250L440 256L440 259L440 266L439 274L439 282L439 290L439 298L440 304L442 305L450 307L456 305L458 302L459 294L459 286L459 278L459 270L459 262L459 254L458 246L458 238L458 230L457 223L454 221L450 219ZM253 256L255 251L257 248L257 248M592 263L591 264L586 267L580 271L577 274L573 279L570 286L568 293L568 296L567 302L567 310L565 318L563 326L561 334L560 338L559 343L557 350L555 358L554 366L552 374L552 377L551 382L549 390L547 398L545 406L544 408L541 414L538 422L536 425L534 430L531 438L529 446L529 454L529 462L530 470L531 478L533 486L535 493L536 496L542 502L545 504L550 505L558 506L566 505L572 504L575 504L582 503L590 501L598 501L600 501M242 272L246 267L248 264L249 264M233 280L238 275L241 272L242 272M227 288L231 283L233 280L233 280M134 296L138 294L146 292L154 292L162 293L169 295L170 298L170 304L166 305L158 307L150 308L142 307L136 305L134 302L134 298ZM223 296L224 294L226 289L227 288M231 408L232 403L232 400L232 400M224 448L224 443L224 440L224 440M0 501L6 502L9 504L14 507L18 511L23 516L26 519L31 526L32 528L37 534L40 538L45 543L48 545L54 548L62 551L66 552L71 553L78 553L86 553L94 554L102 554L110 553L118 553L124 552L127 552L134 549L140 545L143 543L150 541L156 543L159 550L157 558L153 562L146 565L143 567L139 574L137 582L136 586L136 591L135 598L135 600M320 512L317 512L313 512L306 513L298 513L293 512L292 512M383 552L384 551L386 546L387 544M372 568L375 564L378 561L378 560M367 576L368 575L371 570L372 568M359 592L360 591L362 586L362 584M119 0L118 6L116 14L113 21L111 24L106 30L104 32L98 36L91 39L88 40L82 42L74 44L66 46L58 46L50 47L42 47L34 47L26 45L18 41L16 39L12 34L9 27L7 24L4 18L2 10L1 8M444 0L445 6L447 13L452 10L455 3L456 0L456 0M599 0L599 6L597 14L594 22L592 28L592 31L591 38L590 46L590 54L590 62L591 70L592 78L592 81L594 86L598 94L600 97L600 97M448 61L443 63L440 64L434 67L428 71L425 74L419 79L416 82L413 87L409 91L403 95L400 96L394 98L386 98L381 96L377 94L374 89L374 82L376 77L378 73L380 66L381 64M0 97L6 102L8 104L11 110L15 117L16 120L19 126L22 134L24 139L25 143L25 150L28 158L31 164L33 167L38 174L40 177L43 182L47 189L48 192L51 198L53 206L54 214L51 222L49 226L42 230L40 232L34 234L26 236L18 237L10 238L2 238L0 238M285 104L287 102L294 99L302 97L310 97L318 98L326 99L334 102L338 104L343 109L344 112L345 118L345 126L345 134L344 142L344 150L345 158L347 166L351 174L352 176L358 181L362 184L367 186L374 189L381 191L384 192L390 195L396 199L399 204L401 207L403 214L403 222L403 230L403 238L402 246L402 254L401 262L400 270L400 274L400 279L399 286L399 294L398 302L397 310L393 316L390 319L385 322L378 324L370 326L362 328L359 328L354 329L346 330L339 335L337 342L337 350L338 358L339 366L342 374L344 378L346 383L351 387L358 391L360 392L366 393L374 394L382 393L385 392L390 389L395 385L399 380L401 377L404 370L407 362L408 359L410 354L414 346L416 343L422 338L427 336L431 335L438 334L446 333L454 333L462 332L470 330L475 328L479 326L485 321L488 319L491 314L494 306L495 298L495 290L495 282L495 274L496 266L495 258L495 250L495 242L494 234L493 226L492 218L492 210L494 202L496 198L499 193L503 190L510 187L516 185L519 183L526 180L532 177L535 175L542 171L547 168L551 166L557 161L560 159L564 154L564 146L561 142L555 137L552 136L546 134L538 131L533 128L529 127L522 124L514 122L506 120L504 120L498 120L490 120L488 120L482 126L480 128L479 134L479 142L479 150L478 158L477 166L473 172L469 175L465 177L458 179L450 180L442 179L434 177L432 176L426 171L424 168L422 162L420 154L420 146L421 138L422 130L424 126L426 121L431 117L438 114L446 113L454 113L461 112L464 112L469 106L471 98L471 96M275 112L279 109L284 105L285 104M263 120L264 120L270 116L274 113L275 112M250 128L254 126L262 121L263 120M236 136L239 134L246 130L249 128L250 128M228 144L231 141L235 137L236 136M592 239L588 240L585 241L578 243L571 247L568 248L562 254L560 256L555 262L552 267L551 271L548 278L547 286L546 294L546 302L545 310L545 318L544 324L544 327L543 334L542 342L541 350L540 358L539 366L538 374L537 382L536 387L535 391L532 398L529 404L527 407L523 414L520 419L518 423L514 430L512 434L510 439L508 446L507 454L508 462L508 470L509 478L510 486L512 494L512 496L513 502L515 510L518 518L520 523L522 527L527 532L532 535L535 537L542 537L550 536L552 536L558 534L566 531L571 528L575 527L582 524L590 522L598 522L600 521M323 328L327 327L332 322L333 320M274 336L279 333L286 331L294 329L302 329L310 329L318 328L322 328L323 328M267 344L271 339L274 336L274 336M263 352L264 350L266 345L267 344M255 392L256 386L256 384L256 384M0 521L6 523L12 527L15 530L19 535L23 540L25 543L30 550L33 552L38 556L46 559L50 560L55 561L62 562L70 562L78 563L86 564L94 566L100 568L103 569L110 574L112 576L115 582L118 590L118 598L119 600M397 568L399 565L402 561L402 560M390 576L391 574L396 569L397 568M383 584L384 583L388 578L390 576M109 0L109 6L106 14L104 17L100 22L97 26L90 30L87 32L82 34L74 36L66 36L58 36L50 35L44 33L41 31L35 26L32 23L29 18L26 10L26 8M568 0L569 6L569 14L569 22L570 30L570 38L570 46L571 54L571 62L571 70L572 78L571 86L569 94L568 97L565 102L561 107L555 111L552 112L546 114L538 114L530 113L527 112L522 110L514 108L507 105L504 103L498 99L495 96L491 90L488 86L486 81L483 74L481 66L480 64L479 58L478 50L478 42L478 34L479 26L480 21L480 17L481 10L481 8M294 120L298 119L305 119L309 120L314 123L319 129L321 132L323 138L324 146L324 154L323 162L322 169L320 174L317 177L310 182L305 184L302 184L296 184L294 183L286 180L280 177L277 175L270 171L265 168L262 166L256 161L253 158L250 150L253 143L258 140L263 136L266 134L273 130L278 128L282 125L289 121L292 120ZM558 192L559 192L566 192L570 192L575 192L582 194L590 196L598 197L600 197M0 197L6 199L9 200L11 206L9 210L2 212L0 212M527 200L528 200L534 197L542 195L550 193L556 192L558 192M517 208L519 206L526 201L527 200M358 216L362 215L368 215L371 218L376 223L376 225L376 229L375 234L371 242L368 248L368 248L366 247L359 243L357 238L353 230L352 225L352 224L353 221L356 218ZM592 214L590 216L585 217L578 221L573 223L569 225L562 228L556 231L553 233L546 236L540 239L537 241L530 243L524 241L521 238L518 233L514 226L513 218L513 216M471 344L472 344L478 343L486 342L494 340L502 338L510 337L518 342L520 344L522 350L523 358L524 366L525 374L524 382L522 390L520 393L518 398L513 406L512 408L507 414L504 418L500 423L497 426L491 431L488 433L482 437L476 440L473 441L466 443L458 443L450 444L446 447L446 454L448 458L454 459L462 459L470 461L474 463L479 466L483 471L487 476L489 479L492 486L495 494L496 498L497 503L499 510L500 518L502 526L504 532L505 535L510 542L512 545L518 549L523 551L527 553L534 555L542 557L550 558L558 560L560 560L566 564L569 567L570 574L569 582L569 590L569 598L568 600M292 352L295 351L302 351L306 352L311 354L317 359L320 362L322 367L325 374L327 381L329 384L332 390L335 395L341 399L344 400L350 402L358 403L366 403L374 403L382 403L390 401L392 400L398 397L403 393L407 388L409 385L412 378L415 371L417 368L420 362L423 357L428 353L431 350L438 347L446 346L454 345L462 345L469 344L471 344M280 360L286 355L291 352L292 352M275 368L279 362L280 360L280 360M271 384L272 381L272 377L273 376M0 543L1 544L2 550L1 553L0 553M592 552L592 551L594 546L595 544M29 576L31 574L38 571L46 570L54 569L62 569L70 569L78 570L86 571L94 574L97 576L102 581L105 584L108 590L109 598L109 600" fill="none" stroke="#000" stroke-width="1.1"/></svg>
