<svg xmlns="http://www.w3.org/2000/svg" viewBox="0 0 600 600"><g fill="none" stroke="#000" stroke-width="1.1"><path d="M106 0L105 6L104 11L103 15L101 22L99 30L97 38L98 46L100 54L103 60L105 63L110 69L113 72L118 75L125 79L128 81L134 83L142 84L150 85L158 83L162 81L167 75L169 72L171 66L172 58L172 50L172 42L171 34L170 26L170 18L169 10L169 2L168 0"/><path d="M505 0L505 6L508 14L511 19L514 23L519 29L521 32L526 36L530 39L535 43L541 47L544 49L550 53L555 55L559 58L566 61L572 64L575 65L582 68L590 70L598 71L600 71"/><path d="M50 56L54 51L57 48L58 48"/><path d="M34 64L39 62L46 58L49 56L50 56"/><path d="M0 71L6 70L14 69L22 68L30 66L34 64L34 64"/><path d="M423 255L420 256L414 259L406 262L401 264L398 266L390 269L385 272L382 274L375 278L372 281L368 286L365 290L363 298L363 306L364 314L365 322L367 330L368 336L369 338L373 345L377 349L382 352L386 353L394 355L402 355L410 355L418 355L426 355L434 354L442 354L450 354L458 353L464 352L466 351L474 349L482 347L488 345L491 343L498 341L506 339L513 337L516 336L522 334L530 331L537 329L541 328L546 325L552 321L555 318L559 311L560 306L560 302L560 296L559 293L556 286L552 280L550 278L544 273L541 271L535 266L530 264L526 262L518 259L511 257L507 256L502 255L494 253L486 252L478 251L470 250L462 250L454 250L446 250L438 251L430 253L426 254Z"/><path d="M600 352L600 352L594 354L588 359L585 365L584 368L583 374L583 382L584 387L585 391L590 398L593 400L598 402L600 402"/><path d="M224 364L219 367L216 369L213 374L209 380L207 383L203 390L200 394L197 399L193 405L191 408L186 414L184 416L178 421L175 424L170 428L163 431L160 433L154 434L146 435L138 433L135 432L130 430L122 427L116 425L113 423L106 420L98 417L96 416L90 414L82 413L74 413L66 414L58 415L56 416L50 420L46 423L44 430L42 438L42 446L42 454L42 462L41 470L41 478L40 486L40 488L38 494L35 502L33 507L30 511L25 516L21 519L17 522L10 526L3 528L0 528L0 528"/><path d="M16 400L16 400L22 395L24 392L24 392"/><path d="M0 402L6 402L14 400L16 400"/><path d="M352 408L351 408L346 409L338 412L331 415L328 416L322 420L314 423L312 424L306 426L298 426L294 424L289 422L284 417L281 414L276 409L274 408"/><path d="M138 472L143 470L150 469L158 470L162 472L167 473L174 476L182 479L184 480L190 482L198 484L206 485L214 487L222 488L230 488L238 488L246 487L254 486L262 484L270 481L273 480L278 478L286 474L292 472L295 471L302 470L308 472L311 473L318 475L325 479L328 481L334 485L339 487L343 490L350 494L356 496L359 497L361 496L366 493L369 489L371 482L373 474L374 466L374 464"/><path d="M126 480L127 478L134 474L138 472L138 472"/><path d="M118 488L119 486L124 481L126 480"/><path d="M110 504L112 500L113 497L113 496"/><path d="M584 532L578 535L576 536L570 539L564 543L561 545L554 549L550 552L545 555L539 559L536 561L530 565L526 568L521 572L518 575L513 580L511 583L507 590L505 598L505 600"/><path d="M72 584L72 584L78 584L84 584L87 584L94 586L101 591L104 594L105 599L106 600"/><path d="M63 600L64 595L64 592L64 592"/><path d="M491 0L492 6L495 14L496 16L499 22L503 28L506 31L511 37L513 40L518 45L521 48L526 52L530 55L535 59L540 63L543 66L548 71L551 75L555 79L559 82L564 87L567 89L574 94L576 96L581 102L584 106L586 111L589 118L591 126L591 134L592 142L592 150L592 152L598 158L600 159"/><path d="M180 88L183 83L184 80L184 80"/><path d="M43 96L47 94L54 91L62 90L70 89L78 90L86 93L94 95L96 96L102 98L110 99L118 101L126 101L134 102L142 102L150 102L158 101L166 99L170 96L175 93L179 89L180 88"/><path d="M31 104L32 104L38 99L42 96L43 96"/><path d="M20 120L23 114L24 112L24 112"/><path d="M0 159L6 158L14 154L17 152L17 152"/><path d="M86 199L81 200L78 202L72 206L71 210L71 217L74 219L81 223L84 224L90 226L98 230L104 232L106 233L114 236L121 239L124 241L130 243L138 246L144 248L146 248L153 248L157 248L162 247L169 243L174 240L178 237L183 232L186 229L191 222L192 216L192 216L190 214L184 208L182 207L174 204L166 202L158 201L150 200L142 200L134 200L129 200L126 200L118 200L110 199L102 199L94 199L90 199Z"/><path d="M424 246L420 247L417 249L410 251L402 255L400 256L394 259L386 263L383 264L378 267L371 271L368 273L363 278L360 282L358 287L356 294L355 302L355 310L356 318L356 326L356 334L357 342L357 350L357 358L356 366L354 374L352 377L347 382L344 385L338 390L336 392L330 395L323 399L320 400L314 403L306 405L298 405L290 403L286 400L281 397L277 393L273 389L269 385L265 381L262 377L257 372L255 369L250 362L248 360L244 354L241 350L237 345L233 339L231 336L226 331L218 330L212 334L209 339L207 343L205 350L203 358L201 366L200 368L198 374L195 382L193 387L190 391L186 398L184 400L179 406L176 409L170 413L166 416L161 418L154 420L146 420L138 419L130 417L128 416L122 414L114 410L110 408L105 406L98 402L93 400L89 399L82 397L74 397L66 396L58 394L55 392L50 386L48 384L46 378L43 370L41 363L39 360L36 354L33 349L29 345L25 341L20 337L17 335L10 332L2 330L0 330"/><path d="M514 344L518 343L526 341L534 339L542 339L550 338L558 339L565 343L568 346L569 351L570 358L570 366L570 374L571 382L572 390L574 398L576 402L579 407L583 412L587 415L591 418L598 420L600 421"/><path d="M491 352L495 350L502 348L510 345L513 344L514 344"/><path d="M469 360L471 359L478 357L486 354L490 352L491 352"/><path d="M414 368L415 368L422 366L430 365L438 364L446 364L454 363L462 362L467 360L469 360"/><path d="M394 376L399 374L406 371L412 368L414 368"/><path d="M387 384L391 380L394 377L394 376"/><path d="M383 400L384 395L384 392L384 392"/><path d="M0 421L6 421L13 423L16 424L21 430L24 434L25 439L26 446L27 454L26 462L25 470L24 474L23 479L19 486L17 491L12 495L9 498L2 500L0 500"/><path d="M295 488L296 488L301 488L304 488L310 489L318 493L323 495L327 498L334 503L336 504L342 509L345 512L350 516L355 519L359 522L366 525L374 522L377 520L379 514L382 506L383 498L384 492L384 489L385 482L385 480"/><path d="M135 496L136 495L142 492L150 490L158 491L166 491L174 492L182 493L190 494L198 495L206 495L214 496L222 496L230 496L238 496L246 495L254 494L262 493L270 492L278 491L286 489L293 488L295 488"/><path d="M592 502L588 503L585 505L578 510L576 512L570 518L568 520L562 526L560 528L554 534L552 536L546 541L543 544L538 547L532 551L529 554L522 558L520 560L514 565L511 568L506 573L503 576L498 582L496 585L493 590L492 598L491 600"/><path d="M126 512L128 507L128 504L129 504"/><path d="M480 0L481 6L484 14L487 19L490 23L495 30L496 32L501 38L504 41L508 46L511 51L515 55L519 60L522 63L527 70L528 72L531 78L535 83L539 87L543 90L549 95L552 96L558 102L560 104L565 110L568 113L571 118L573 126L575 134L576 139L576 143L577 150L578 158L582 166L584 169L590 173L598 176L600 176L600 176"/><path d="M189 96L191 92L193 89L194 88"/><path d="M181 104L183 102L188 97L189 96"/><path d="M161 112L166 111L174 108L180 105L181 104"/><path d="M108 120L111 119L118 117L126 115L134 114L142 113L150 113L158 113L161 112L161 112"/><path d="M96 128L96 128L102 123L107 121L108 120"/><path d="M366 126L361 128L358 131L353 137L352 140L350 146L351 153L353 157L356 161L362 164L370 167L378 167L385 163L389 158L391 150L390 142L387 134L383 129L380 127L374 125L370 126Z"/><path d="M85 144L87 141L89 137L89 136"/><path d="M0 176L6 176L14 176L22 177L30 178L38 182L41 184L45 190L47 198L48 200L49 206L51 214L53 222L55 230L56 232L59 238L63 245L65 248L70 251L78 252L86 254L92 256L95 257L102 260L107 263L111 267L116 271L119 275L122 279L126 286L128 291L129 295L130 302L135 308L142 311L144 312L150 312L158 313L166 315L173 319L176 320L182 326L184 328L188 334L190 342L192 350L192 358L191 366L189 374L186 382L184 386L182 391L177 397L175 400L170 404L164 407L161 409L154 411L146 411L138 410L133 408L129 407L122 404L115 401L112 399L106 395L101 393L97 390L90 385L88 384L82 381L74 379L67 377L64 375L62 370L57 362L56 360L53 354L49 347L47 344L43 338L40 334L36 329L33 326L28 321L25 318L18 314L16 312L10 308L2 305L0 305"/><path d="M221 232L223 229L226 225L226 224"/><path d="M448 231L442 232L440 232L434 234L426 237L421 239L417 241L410 244L404 247L401 249L394 252L388 255L385 257L378 260L372 263L369 265L362 270L360 272L356 278L353 285L352 288L350 294L350 302L350 310L350 318L350 326L349 334L349 342L347 350L345 358L344 361L342 366L337 373L335 376L330 381L326 384L321 386L314 390L308 392L305 392L298 393L295 392L290 390L282 385L280 384L274 378L272 376L267 370L264 367L260 362L257 357L254 353L249 346L248 344L245 338L241 330L240 326L238 321L236 314L235 306L235 298L234 290L233 282L232 278L230 273L227 266L225 260L223 257L220 250L218 242L220 234L221 232"/><path d="M508 352L511 351L518 349L526 347L534 346L542 347L550 349L554 352L558 358L560 361L561 366L562 374L563 382L564 390L566 398L568 405L568 408L571 414L575 420L577 423L582 429L586 432L591 435L598 437L600 437"/><path d="M487 360L488 360L494 357L502 354L507 352L508 352"/><path d="M467 368L471 367L478 364L485 361L487 360"/><path d="M423 376L424 376L430 374L438 373L446 372L454 371L462 370L467 368L467 368"/><path d="M407 384L408 384L414 380L421 377L423 376"/><path d="M399 392L400 391L405 386L407 384"/><path d="M392 424L392 420L392 417L392 416"/><path d="M0 437L6 439L8 440L11 446L11 454L10 462L8 466L3 471L0 473L0 473"/><path d="M592 475L587 479L584 481L578 486L576 488L571 494L568 497L564 502L561 506L557 511L553 516L551 519L547 526L544 529L539 534L536 537L530 542L528 544L522 549L518 552L513 556L509 559L505 563L501 567L497 571L493 575L489 580L486 583L483 590L481 598L480 600"/><path d="M195 504L199 504L206 503L214 503L222 502L230 502L238 502L246 501L254 501L262 500L270 500L278 499L286 499L294 498L302 498L310 500L318 503L320 504L326 508L330 511L335 515L339 519L343 523L348 527L351 530L358 535L360 536L366 538L374 539L380 537L383 534L386 529L389 522L390 514L391 506L391 498L391 496"/><path d="M151 512L152 512L158 511L166 509L174 507L182 506L190 505L194 504L195 504"/><path d="M466 0L467 6L471 13L473 16L477 22L480 25L484 30L487 35L491 39L495 44L498 47L502 54L504 56L508 62L511 70L512 73L513 78L517 86L520 89L526 94L529 96L534 99L540 103L543 105L550 110L552 112L556 118L559 123L562 127L564 134L566 142L566 150L567 158L568 164L568 167L571 174L575 179L580 183L583 185L590 187L598 188L600 188"/><path d="M296 72L294 73L287 77L282 82L280 88L280 89L280 93L281 98L285 105L290 109L297 112L300 112L306 112L314 113L322 116L327 120L329 123L330 130L331 138L332 146L333 154L336 160L338 162L344 168L346 169L354 174L359 176L362 177L370 179L378 180L386 178L391 176L393 173L398 167L400 162L401 158L402 150L401 142L400 135L400 132L397 126L394 119L391 116L386 111L382 109L374 108L366 108L358 108L350 107L342 106L337 104L335 101L330 95L328 90L325 86L321 80L318 78L310 74L305 72L302 72L298 72Z"/><path d="M208 80L208 77L208 73L208 72"/><path d="M195 112L199 107L201 104L201 104"/><path d="M183 120L184 120L190 116L194 113L195 112"/><path d="M133 128L135 127L142 126L150 125L158 125L166 124L174 123L181 121L183 120"/><path d="M120 136L120 136L126 131L131 129L133 128"/><path d="M0 188L6 188L14 190L19 192L23 194L29 199L32 201L35 206L38 214L40 220L41 223L42 230L43 238L44 246L44 254L44 262L41 270L39 272L34 274L26 275L18 275L10 276L2 276L0 276"/><path d="M432 222L429 223L425 226L419 231L416 232L410 236L405 239L401 241L394 245L389 248L385 250L378 253L373 255L369 257L362 262L360 264L355 270L352 274L350 279L347 286L345 294L345 302L345 310L344 318L344 322L344 327L343 334L341 342L338 350L336 355L334 359L329 365L327 368L322 372L317 375L313 378L306 380L298 380L290 378L287 376L282 372L278 369L273 364L270 361L265 355L263 352L259 346L256 342L254 337L251 330L248 324L247 321L246 314L245 306L244 298L244 290L243 282L243 274L242 266L241 258L240 251L240 248L240 242L240 239L240 234L242 226L242 224"/><path d="M63 280L66 280L74 280L80 280L82 281L89 285L93 290L96 297L96 300L96 306L97 314L100 321L106 326L113 328L116 328L122 328L130 329L138 329L146 329L154 329L162 331L169 335L172 338L176 343L178 346L181 354L182 362L181 370L179 378L177 384L175 387L170 393L166 396L160 400L158 401L150 402L142 402L136 400L133 399L126 396L120 393L117 391L111 386L108 382L104 377L102 374L99 366L98 358L96 351L96 348L93 342L89 336L86 334L78 333L70 332L65 328L63 325L58 319L56 314L53 310L51 302L51 294L53 287L58 282L61 281Z"/><path d="M504 360L504 360L510 358L518 355L526 354L534 354L542 356L547 359L551 364L553 367L554 374L555 382L556 390L557 398L559 406L560 411L561 415L563 422L566 430L568 435L569 439L572 446L572 454L570 462L568 466L566 471L562 478L560 481L557 486L553 493L551 496L547 502L544 506L541 511L537 518L536 520L532 526L529 531L525 535L521 539L516 543L513 546L508 551L505 553L499 558L496 561L490 566L488 568L482 574L480 576L475 582L472 586L469 591L466 598L466 600"/><path d="M486 368L488 367L494 364L502 361L504 360"/><path d="M470 376L472 376L478 373L485 369L486 368"/><path d="M429 384L431 383L438 381L446 380L454 380L462 379L469 377L470 376"/><path d="M414 392L415 391L422 387L428 384L429 384"/><path d="M406 400L408 398L412 393L414 392"/><path d="M400 416L400 415L402 410L402 408"/><path d="M211 512L215 511L222 510L230 509L238 509L246 508L254 508L262 508L270 508L278 508L286 507L294 508L302 508L310 510L315 512L319 514L326 519L328 520L334 526L336 528L342 533L345 536L350 540L356 543L359 545L366 548L374 550L382 548L388 545L391 542L394 537L397 530L398 522L398 514L398 506L398 504"/><path d="M195 520L199 517L206 514L210 512L211 512"/><path d="M423 0L424 4L424 7L429 14L432 17L438 20L446 22L454 24L456 24L462 27L467 31L471 34L476 39L479 42L483 47L487 52L489 55L493 62L495 70L496 72L496 78L498 86L503 94L504 96L510 102L513 104L518 107L526 111L529 112L534 115L540 119L543 122L547 127L551 134L552 136L553 142L554 150L554 158L554 166L554 174L553 182L552 185L549 190L545 194L538 196L530 197L522 197L514 198L506 198L498 199L490 199L482 200L476 200L473 200L466 200L458 201L450 201L442 201L434 201L426 202L418 205L415 208L411 214L408 218L406 223L401 228L398 231L393 235L387 239L384 240L378 243L371 247L368 248L362 253L358 255L353 260L351 263L346 270L344 274L342 279L340 286L339 294L339 302L338 310L338 318L336 326L336 328L334 334L332 342L329 348L326 351L321 357L318 360L313 363L306 365L298 366L290 364L285 361L281 358L276 353L273 350L269 345L265 339L263 336L260 330L257 322L256 318L255 313L254 306L254 298L253 290L253 282L253 274L252 266L252 258L252 250L252 242L252 234L254 226L255 218L256 211L256 208L256 202L256 194L256 192L255 186L252 178L249 173L243 169L240 167L234 164L229 161L225 156L222 153L222 146L222 138L223 130L224 123L224 120L225 114L225 106L225 98L225 90L224 85L224 81L223 74L222 66L220 58L217 50L216 47L215 42L213 34L211 26L209 18L208 12L208 9L208 8"/><path d="M280 64L277 65L270 68L264 72L263 74L258 82L256 87L255 90L253 98L254 106L255 113L256 117L259 122L264 128L266 130L272 136L274 138L281 143L284 146L288 152L290 153L298 155L305 157L309 161L314 164L319 168L322 170L329 175L332 177L338 180L344 183L347 185L354 187L362 190L368 192L371 192L378 193L386 194L394 194L400 193L403 191L408 186L410 182L412 174L413 166L413 158L413 150L413 142L412 134L411 126L409 119L408 114L406 110L402 103L399 99L395 95L390 91L385 88L382 87L374 87L366 86L358 84L352 80L350 78L344 73L341 71L334 67L328 64L325 64L318 62L310 61L302 60L294 61L286 62L282 63Z"/><path d="M0 202L6 203L14 207L16 208L21 214L24 217L26 222L27 230L27 238L25 245L23 248L18 253L14 256L9 257L2 258L0 259"/><path d="M564 208L567 206L574 204L582 203L590 202L598 202L600 202"/><path d="M559 224L560 218L560 216L560 216"/><path d="M128 352L130 351L138 347L146 346L154 346L161 349L165 354L168 359L169 362L169 370L168 376L167 379L162 385L158 388L150 390L142 389L135 386L130 383L127 380L123 374L122 366L124 358L127 354Z"/><path d="M509 368L511 367L518 365L526 364L534 365L538 367L543 374L544 377L545 382L546 390L547 398L547 406L548 414L548 422L549 430L549 438L549 446L549 454L548 462L545 470L544 473L542 478L538 486L536 489L533 494L529 501L528 504L524 510L521 516L519 519L515 526L513 530L509 535L505 539L501 543L497 547L493 551L489 554L484 559L481 561L474 566L472 568L466 572L460 575L457 577L450 578L442 579L434 581L430 583L425 590L424 593L423 598L423 600"/><path d="M494 376L496 375L502 372L507 369L509 368"/><path d="M479 384L480 384L486 381L493 377L494 376"/><path d="M436 392L439 391L446 390L454 390L462 389L470 387L477 385L479 384"/><path d="M420 400L423 398L430 394L435 392L436 392"/><path d="M413 408L415 405L419 401L420 400"/><path d="M406 424L407 419L408 416L408 416"/><path d="M232 520L232 520L238 519L246 518L254 518L262 518L270 518L278 518L286 518L294 519L302 519L306 520L311 521L318 525L322 528L327 531L331 535L335 538L341 543L344 545L350 550L353 552L358 556L365 559L368 560L374 562L382 562L390 561L394 560L399 557L403 553L405 546L407 538L408 530L408 522L407 514L407 512"/><path d="M220 528L223 525L230 521L232 520"/><path d="M213 544L215 538L216 536L216 536"/><path d="M208 584L208 581L208 577L208 576"/><path d="M399 0L399 6L399 14L399 22L398 30L395 38L393 41L386 45L381 47L377 49L370 52L362 54L354 54L346 53L338 53L330 52L322 51L314 51L306 51L298 51L290 51L282 52L274 53L266 55L259 56L256 56L250 57L246 56L241 55L235 50L232 47L229 42L226 34L224 31L223 26L221 18L219 10L219 8"/><path d="M416 48L418 47L426 45L434 45L442 44L450 44L458 46L463 48L466 51L471 56L473 59L476 66L477 74L477 82L478 90L480 96L481 98L485 105L489 109L493 113L498 117L504 120L506 121L514 125L520 128L523 129L529 132L534 137L537 140L538 146L539 154L537 161L535 165L532 169L526 173L519 176L516 176L510 177L502 179L494 180L486 180L478 181L470 182L462 182L454 182L446 182L439 179L434 175L431 172L429 166L427 158L427 150L427 142L427 134L426 126L426 118L425 110L424 104L424 101L422 94L419 86L416 80L415 78L412 70L410 62L411 54L414 50Z"/><path d="M279 192L282 190L290 186L298 184L306 185L314 187L322 189L328 192L330 193L338 196L345 199L349 201L354 203L362 206L367 208L370 210L377 215L378 218L378 225L375 228L371 233L366 236L361 240L358 242L352 247L349 250L344 256L343 258L339 266L336 272L335 274L333 282L332 290L332 298L331 306L330 314L329 321L328 326L326 330L323 337L319 342L316 345L310 349L302 352L294 351L287 347L282 344L279 341L274 335L272 331L269 326L266 318L264 311L264 308L263 302L263 294L263 286L263 278L263 270L263 262L263 254L263 246L264 240L264 237L265 230L267 222L269 214L271 207L272 203L275 198L278 194Z"/><path d="M501 392L506 390L514 387L522 387L528 391L529 394L530 402L530 410L530 418L529 426L528 433L528 436L527 442L527 450L526 458L524 466L522 474L520 479L518 482L515 490L512 496L511 498L507 506L504 512L503 514L499 522L496 528L495 530L490 537L487 540L482 544L478 547L472 552L470 553L462 557L454 559L446 560L438 558L431 555L427 551L424 546L422 542L420 534L419 526L418 518L417 510L416 505L415 502L414 494L413 486L412 478L411 470L411 462L410 454L410 446L411 438L413 430L415 423L417 420L420 414L425 409L428 407L434 403L441 401L446 400L450 400L458 399L466 399L474 398L482 397L490 395L497 393L499 392Z"/><path d="M248 536L248 536L254 534L262 533L270 532L278 532L286 531L294 531L302 532L310 534L314 536L319 538L326 543L328 544L334 549L337 552L342 556L347 559L351 562L357 567L360 569L366 573L373 575L376 577L382 579L390 583L392 584L396 590L398 598L399 600"/><path d="M235 544L239 541L246 537L248 536"/><path d="M229 552L231 549L235 545L235 544"/><path d="M223 568L224 565L225 561L225 560"/></g></svg>
